<svg width="24.000000000000004" height="24.000000000000004" xmlns="http://www.w3.org/2000/svg">

 <g>
  <title>background</title>
  <rect fill="none" id="canvas_background" height="26" width="26" y="-1" x="-1"/>
 </g>
 <g>
  <title>Layer 1</title>
  <path id="svg_1" fill-rule="nonzero" fill="#ffffff" d="m23.734381,22.279869l-0.03125,-3.48828l-1.88282,0.03125l-4.13281,-6.28516c2.90234,-1.09375 4.35156,-2.8125 4.35156,-5.15234c0,-1.61719 -0.66406,-2.97657 -1.99218,-4.07032c-1.40235,-1.13672 -3.29297,-1.70703 -5.67188,-1.70703l-13.98437,0.01953l0,3.46094l1.59765,0.00781l0,13.72657l-1.59765,-0.03125l0,3.48828l9.91796,0l0,-3.48828l-1.64843,0.03125l0,-5.59766l2.9375,0l3.53125,5.60937l-2.07813,-0.03515l-0.00781,3.48437l10.69141,-0.0039zm-9.34375,-13.17969c-0.67188,0.52734 -1.66407,0.78906 -2.98047,0.78906l-2.64844,0l0,-4.79297l3.35547,0c1.09375,0 1.92578,0.29688 2.5,0.88672c0.39453,0.39453 0.59375,0.88672 0.59375,1.47656c0,0.63672 -0.27344,1.1836 -0.82031,1.64063zm0,0"/>
 </g>
</svg>