<?xml version="1.0" encoding="UTF-8"?>
<svg xmlns="http://www.w3.org/2000/svg" xmlns:xlink="http://www.w3.org/1999/xlink" width="24pt" height="24pt" viewBox="0 0 24 24" version="1.1">
<g id="surface1">
<path style=" stroke:none;fill-rule:nonzero;fill:rgb(100%,100%,100%);fill-opacity:1;" d="M 23.734375 22.410156 L 23.703125 18.921875 L 21.820312 18.953125 L 17.6875 12.667969 C 20.589844 11.574219 22.039062 9.855469 22.039062 7.515625 C 22.039062 5.898438 21.375 4.539062 20.046875 3.445312 C 18.644531 2.308594 16.753906 1.738281 14.375 1.738281 L 0.390625 1.757812 L 0.390625 5.21875 L 1.988281 5.226562 L 1.988281 18.953125 L 0.390625 18.921875 L 0.390625 22.410156 L 10.308594 22.410156 L 10.308594 18.921875 L 8.660156 18.953125 L 8.660156 13.355469 L 11.597656 13.355469 L 15.128906 18.964844 L 13.050781 18.929688 L 13.042969 22.414062 Z M 14.390625 9.230469 C 13.71875 9.757812 12.726562 10.019531 11.410156 10.019531 L 8.761719 10.019531 L 8.761719 5.226562 L 12.117188 5.226562 C 13.210938 5.226562 14.042969 5.523438 14.617188 6.113281 C 15.011719 6.507812 15.210938 7 15.210938 7.589844 C 15.210938 8.226562 14.9375 8.773438 14.390625 9.230469 Z M 14.390625 9.230469 "/>
<path style=" stroke:none;fill-rule:nonzero;fill:rgb(13.333333%,0%,0%);fill-opacity:1;" d="M 8.847656 9.933594 L 11.410156 9.933594 C 12.699219 9.933594 13.6875 9.675781 14.339844 9.164062 C 14.859375 8.726562 15.125 8.195312 15.125 7.589844 C 15.125 7.027344 14.933594 6.550781 14.554688 6.175781 C 14 5.601562 13.183594 5.3125 12.117188 5.3125 L 8.847656 5.3125 Z M 11.410156 10.105469 L 8.675781 10.105469 L 8.675781 5.140625 L 12.117188 5.140625 C 13.230469 5.140625 14.089844 5.449219 14.675781 6.054688 C 15.089844 6.460938 15.296875 6.976562 15.296875 7.589844 C 15.296875 8.25 15.011719 8.824219 14.445312 9.296875 C 13.761719 9.832031 12.738281 10.105469 11.410156 10.105469 Z M 13.136719 19.015625 L 13.128906 22.328125 L 23.648438 22.328125 L 23.621094 19.011719 L 21.777344 19.039062 L 17.554688 12.625 L 17.65625 12.589844 C 20.507812 11.511719 21.953125 9.804688 21.953125 7.515625 C 21.953125 5.929688 21.296875 4.585938 19.992188 3.511719 C 18.613281 2.390625 16.722656 1.824219 14.375 1.824219 L 0.476562 1.84375 L 0.476562 5.132812 L 2.074219 5.140625 L 2.074219 19.039062 L 0.476562 19.011719 L 0.476562 22.328125 L 10.222656 22.328125 L 10.222656 19.011719 L 8.574219 19.039062 L 8.574219 13.269531 L 11.644531 13.269531 L 11.667969 13.308594 L 15.285156 19.050781 Z M 12.957031 22.5 L 12.964844 18.839844 L 14.972656 18.875 L 11.550781 13.441406 L 8.742188 13.441406 L 8.742188 18.863281 L 10.394531 18.835938 L 10.394531 22.496094 L 0.304688 22.496094 L 0.304688 18.835938 L 1.902344 18.863281 L 1.902344 5.3125 L 0.304688 5.304688 L 0.304688 1.671875 L 14.375 1.652344 C 16.761719 1.652344 18.6875 2.234375 20.101562 3.378906 C 21.445312 4.488281 22.125 5.878906 22.125 7.515625 C 22.125 9.859375 20.675781 11.605469 17.816406 12.710938 L 21.867188 18.867188 L 23.789062 18.835938 L 23.820312 22.496094 Z M 12.957031 22.5 "/>
<path style=" stroke:none;fill-rule:nonzero;fill:rgb(13.72549%,12.156863%,12.54902%);fill-opacity:1;" d="M 8.933594 9.847656 L 11.410156 9.847656 C 12.703125 9.847656 13.660156 9.589844 14.285156 9.097656 C 14.796875 8.660156 15.039062 8.171875 15.039062 7.589844 C 15.039062 7.039062 14.859375 6.597656 14.492188 6.230469 C 13.960938 5.683594 13.183594 5.398438 12.117188 5.398438 L 8.933594 5.398438 Z M 8.589844 10.191406 L 8.589844 5.054688 L 12.117188 5.054688 C 13.238281 5.054688 14.125 5.363281 14.734375 5.992188 C 15.164062 6.414062 15.382812 6.960938 15.382812 7.589844 C 15.382812 8.277344 15.078125 8.882812 14.5 9.363281 L 14.390625 9.230469 L 14.496094 9.367188 C 13.78125 9.925781 12.746094 10.191406 11.410156 10.191406 Z M 13.214844 22.242188 L 23.5625 22.242188 L 23.535156 19.097656 L 21.730469 19.125 L 17.425781 12.582031 L 17.625 12.507812 C 20.492188 11.417969 21.863281 9.773438 21.867188 7.515625 C 21.867188 5.945312 21.234375 4.648438 19.941406 3.578125 C 18.574219 2.472656 16.726562 1.910156 14.375 1.910156 L 0.5625 1.925781 L 0.5625 5.046875 L 2.160156 5.058594 L 2.160156 19.125 L 0.5625 19.097656 L 0.5625 22.242188 L 10.136719 22.242188 L 10.136719 19.097656 L 8.488281 19.125 L 8.488281 13.183594 L 11.691406 13.183594 L 15.441406 19.140625 L 13.222656 19.101562 Z M 12.878906 18.753906 L 14.816406 18.785156 L 11.503906 13.523438 L 8.828125 13.523438 L 8.828125 18.777344 L 10.480469 18.75 L 10.480469 22.582031 L 0.222656 22.582031 L 0.222656 18.75 L 1.816406 18.777344 L 1.816406 5.398438 L 0.222656 5.386719 L 0.222656 1.585938 L 14.375 1.566406 C 16.78125 1.566406 18.714844 2.144531 20.15625 3.3125 C 21.515625 4.429688 22.214844 5.847656 22.210938 7.515625 C 22.214844 9.882812 20.753906 11.648438 17.945312 12.75 L 21.914062 18.777344 L 23.875 18.75 L 23.90625 22.410156 L 23.734375 22.410156 L 23.734375 22.242188 L 23.734375 22.410156 L 23.90625 22.410156 L 23.910156 22.582031 L 12.871094 22.585938 Z M 12.878906 18.753906 "/>
</g>
</svg>
